<svg width="12" height="10" viewBox="0 0 12 10" fill="none" xmlns="http://www.w3.org/2000/svg">
<path d="M7.75002 7.33334L5.41669 9.66668H10.0834C10.725 9.66668 11.25 9.14168 11.25 8.50001C11.25 7.85834 10.725 7.33334 10.0834 7.33334H7.75002Z" fill="black" fill-opacity="0.7"/>
<path d="M6.035 2.19417L0.919167 7.31C0.814167 7.415 0.75 7.56667 0.75 7.71833V9.08333C0.75 9.40417 1.0125 9.66667 1.33333 9.66667H2.69833C2.85583 9.66667 3.00167 9.6025 3.1125 9.4975L8.22833 4.38167L6.035 2.19417Z" fill="black" fill-opacity="0.7"/>
<path d="M9.91418 2.69C10.1417 2.4625 10.1417 2.095 9.91418 1.8675L8.54918 0.502504C8.32168 0.275004 7.95418 0.275004 7.72668 0.502504L6.65918 1.57L8.84668 3.7575L9.91418 2.69Z" fill="black" fill-opacity="0.7"/>
</svg>
