<svg width="10" height="12" viewBox="0 0 10 12" fill="none" xmlns="http://www.w3.org/2000/svg">
<path d="M1.50002 10.0833C1.50002 10.725 2.02502 11.25 2.66669 11.25H7.33335C7.97502 11.25 8.50002 10.725 8.50002 10.0833V4.25C8.50002 3.60833 7.97502 3.08333 7.33335 3.08333H2.66669C2.02502 3.08333 1.50002 3.60833 1.50002 4.25V10.0833ZM8.50002 1.33333H7.04169L6.62752 0.919167C6.52252 0.814167 6.37085 0.75 6.21919 0.75H3.78085C3.62919 0.75 3.47752 0.814167 3.37252 0.919167L2.95835 1.33333H1.50002C1.17919 1.33333 0.916687 1.59583 0.916687 1.91667C0.916687 2.2375 1.17919 2.5 1.50002 2.5H8.50002C8.82085 2.5 9.08335 2.2375 9.08335 1.91667C9.08335 1.59583 8.82085 1.33333 8.50002 1.33333Z" fill="black" fill-opacity="0.7"/>
</svg>
