<svg width="22" height="16" viewBox="0 0 22 16" fill="none" xmlns="http://www.w3.org/2000/svg">
<path d="M15.4 13.2V15.2308H0V13.2C0 13.2 0 9.13848 7.7 9.13848C15.4 9.13848 15.4 13.2 15.4 13.2ZM11.55 3.55389C11.55 2.85101 11.3242 2.16391 10.9012 1.57948C10.4781 0.995058 9.87683 0.539554 9.17333 0.270573C8.46984 0.00159177 7.69573 -0.068786 6.9489 0.0683395C6.20208 0.205465 5.51607 0.543935 4.97764 1.04095C4.43921 1.53796 4.07253 2.17119 3.92398 2.86057C3.77542 3.54995 3.85167 4.2645 4.14306 4.91388C4.43446 5.56326 4.92793 6.11829 5.56105 6.50879C6.19418 6.89929 6.93854 7.10772 7.7 7.10772C8.72108 7.10772 9.70035 6.7333 10.4224 6.06683C11.1444 5.40035 11.55 4.49642 11.55 3.55389ZM15.334 9.13848C16.0102 9.62155 16.5635 10.2355 16.955 10.9372C17.3465 11.6389 17.5667 12.4113 17.6 13.2V15.2308H22V13.2C22 13.2 22 9.51417 15.334 9.13848ZM14.3 5.33877e-05C13.5429 -0.00383828 12.8024 0.205115 12.177 0.599128C12.8452 1.46092 13.2045 2.49412 13.2045 3.55389C13.2045 4.61365 12.8452 5.64685 12.177 6.50865C12.8024 6.90266 13.5429 7.11161 14.3 7.10772C15.3211 7.10772 16.3003 6.7333 17.0224 6.06683C17.7444 5.40035 18.15 4.49642 18.15 3.55389C18.15 2.61135 17.7444 1.70742 17.0224 1.04095C16.3003 0.374474 15.3211 5.33877e-05 14.3 5.33877e-05Z" fill="white"/>
</svg>
